/* XPM */
static char *biblioFrame_toolb_lecteurCodesBarre_XPM[]={
/* biblioFrame_toolb_lecteurCodesBarre */
"24 24 411 2",
"      c None",
" 0    c #DADADA",
" 1    c #CDD6D6",
" 2    c #96A3C9",
" 3    c #7999B3",
" 4    c #6699C3",
" 5    c #6696AC",
" 6    c #79A0BF",
" 7    c #B2BCC9",
" 8    c #CECECF",
" 9    c #D9D9D9",
" a    c #DCDBDB",
" b    c #C5C2BE",
" c    c #BAC1C1",
" d    c #ADE2E2",
" e    c #A9E4E1",
" f    c #5291B1",
" g    c #5897AE",
" h    c #6CA0D9",
" i    c #585894",
" j    c #6E7DB6",
" k    c #756D84",
" l    c #C8C3BA",
" m    c #EAE5E2",
" n    c #DBDAD8",
" o    c #DBDBDB",
" p    c #C6C4C0",
" q    c #C5CCC7",
" r    c #CADFFF",
" s    c #D3D6FF",
" t    c #DCDCFF",
" u    c #ADAAE1",
" v    c #332C86",
" w    c #236397",
" x    c #354B81",
" y    c #C4C4F8",
" z    c #A4A8D5",
" A    c #2C6952",
" B    c #B8C1E9",
" C    c #E9E7DE",
" D    c #D8D8D7",
" E    c #D0CECE",
" F    c #C6C3B9",
" G    c #CCE9FF",
" H    c #CCC6FF",
" I    c #CFCBFF",
" J    c #DBD4FF",
" K    c #F0ECFF",
" L    c #88BAEA",
" M    c #3B76AB",
" N    c #9ACDEF",
" O    c #E0EBFF",
" P    c #E9E4FF",
" Q    c #70A7DA",
" R    c #21286F",
" S    c #F4EFEF",
" T    c #E1DFDA",
" U    c #D7D7D7",
" V    c #C3C2BD",
" W    c #DBEEEB",
" X    c #CBC7FF",
" Y    c #CECBFF",
" Z    c #DEF0FF",
" &    c #B8ADEB",
"0     c #839BAA",
"00    c #4785A9",
"01    c #4880B5",
"02    c #5693AF",
"03    c #5B97BC",
"04    c #D4C6FF",
"05    c #D2F2FF",
"06    c #45437C",
"07    c #6E899F",
"08    c #EBE6F4",
"09    c #DAD8D5",
"0a    c #CCCCCD",
"0b    c #B8B3AB",
"0c    c #D3DAFF",
"0d    c #CDC9FF",
"0e    c #DDD5FF",
"0f    c #C3C4F3",
"0g    c #31575F",
"0h    c #3C555F",
"0i    c #175A73",
"0j    c #1E4B86",
"0k    c #1F3887",
"0l    c #4B5387",
"0m    c #567272",
"0n    c #C7D6FF",
"0o    c #7BAADC",
"0p    c #273561",
"0q    c #DFF0FF",
"0r    c #DFDCD8",
"0s    c #CACACD",
"0t    c #B3CCDA",
"0u    c #D0DAFF",
"0v    c #D4CEFF",
"0w    c #BBD6FD",
"0x    c #336B66",
"0y    c #433383",
"0z    c #305287",
"0A    c #706DD1",
"0B    c #655CDC",
"0C    c #326DC1",
"0D    c #296095",
"0E    c #1B568B",
"0F    c #3E7BAF",
"0G    c #6DB1E4",
"0H    c #11204C",
"0I    c #A8C4BE",
"0J    c #E7E4DE",
"0K    c #C0C0C7",
"0L    c #A8C1D8",
"0M    c #D2DBFF",
"0N    c #DED3FF",
"0O    c #8BA9B9",
"0P    c #5C5B7F",
"0Q    c #3450AA",
"0R    c #C6FAFF",
"0S    c #E7DEFF",
"0T    c #567EC9",
"0U    c #379BDA",
"0V    c #2867A1",
"0W    c #266090",
"0X    c #4A70B9",
"0Y    c #7990F1",
"0Z    c #192C69",
"0&    c #A5A0BD",
"1     c #E7E5DF",
"10    c #D6D6D6",
"11    c #D5D5D5",
"12    c #C1C1C2",
"13    c #AFAEC8",
"14    c #D7D2FF",
"15    c #D9D8FF",
"16    c #62979B",
"17    c #255477",
"18    c #2E70A1",
"19    c #AFE6FE",
"1a    c #D5CBF2",
"1b    c #64ABDE",
"1c    c #65B9F4",
"1d    c #3177B7",
"1e    c #645F9E",
"1f    c #495EAA",
"1g    c #6A9EBE",
"1h    c #21175E",
"1i    c #B1AFD1",
"1j    c #FFFFFF",
"1k    c #DCDCDC",
"1l    c #C1CACA",
"1m    c #7CB6BA",
"1n    c #DADEFF",
"1o    c #DADAFF",
"1p    c #5E95A4",
"1q    c #2A567E",
"1r    c #324B8F",
"1s    c #6C57B3",
"1t    c #3555E0",
"1u    c #144657",
"1v    c #2C1503",
"1w    c #887968",
"1x    c #696A5B",
"1y    c #4B8C86",
"1z    c #414B39",
"1A    c #423C31",
"1B    c #62625B",
"1C    c #444442",
"1D    c #030303",
"1E    c #BDBDBE",
"1F    c #4E4E4F",
"1G    c #646464",
"1H    c #000000",
"1I    c #B8B8B8",
"1J    c #CECECE",
"1K    c #6C8A8F",
"1L    c #C5CCFF",
"1M    c #D8D8FF",
"1N    c #6FA8C1",
"1O    c #41608A",
"1P    c #2F449F",
"1Q    c #526ED1",
"1R    c #7A73FE",
"1S    c #395332",
"1T    c #7D7A78",
"1U    c #353245",
"1V    c #506E9A",
"1W    c #2C2925",
"1X    c #6C6969",
"1Y    c #4A4A4A",
"1Z    c #2B2B2B",
"1&    c #CBCBCE",
"2     c #373738",
"20    c #535352",
"21    c #B0B0B0",
"22    c #D4D4D5",
"23    c #7D8179",
"24    c #93B2D9",
"25    c #EDE7FF",
"26    c #BACEE4",
"27    c #275C8E",
"28    c #515E8C",
"29    c #004777",
"2a    c #272DB1",
"2b    c #494129",
"2c    c #83817F",
"2d    c #3E4B49",
"2e    c #54999F",
"2f    c #212721",
"2g    c #B2B0B0",
"2h    c #494949",
"2i    c #333333",
"2j    c #020202",
"2k    c #D2D2D5",
"2l    c #3E3E3F",
"2m    c #5D5D5C",
"2n    c #DFD8D4",
"2o    c #32574B",
"2p    c #95BCE5",
"2q    c #D7EBFF",
"2r    c #B4BEE4",
"2s    c #2E6097",
"2t    c #476996",
"2u    c #346FAB",
"2v    c #473F2B",
"2w    c #3C3746",
"2x    c #4B6F8F",
"2y    c #161F1C",
"2z    c #BCBABA",
"2A    c #444444",
"2B    c #F4EFEE",
"2C    c #C1C9D3",
"2D    c #156154",
"2E    c #8BB5A9",
"2F    c #DBF1FA",
"2G    c #B4C1EE",
"2H    c #7D93DB",
"2I    c #7290DA",
"2J    c #4B4131",
"2K    c #81807F",
"2L    c #353C39",
"2M    c #6B7C79",
"2N    c #1D1816",
"2O    c #C1C0C0",
"2P    c #414141",
"2Q    c #DAD8D7",
"2R    c #E7EBF0",
"2S    c #C4CED6",
"2T    c #695E97",
"2U    c #44649F",
"2V    c #7980AF",
"2W    c #7FB2E9",
"2X    c #8CC7FF",
"2Y    c #554E3A",
"2Z    c #7E7E7E",
"2&    c #4A4949",
"3     c #C0BFBF",
"30    c #1D1C1C",
"31    c #DEDEDE",
"32    c #3E3E3E",
"33    c #D8D7D7",
"34    c #DCDAD9",
"35    c #E9E3DA",
"36    c #A1B4D0",
"37    c #5FA1A7",
"38    c #215694",
"39    c #25206F",
"3a    c #2C23A4",
"3b    c #403C23",
"3c    c #7D7D7C",
"3d    c #51514F",
"3e    c #E6E6E4",
"3f    c #1E1E1D",
"3g    c #E4E4E4",
"3h    c #3C3C3C",
"3i    c #DCDCDB",
"3j    c #DCD6CE",
"3k    c #ADB5B6",
"3l    c #6DACD3",
"3m    c #6A88DA",
"3n    c #7181DF",
"3o    c #7775FF",
"3p    c #4D4D33",
"3q    c #7F7F7E",
"3r    c #48454E",
"3s    c #C2BFD5",
"3t    c #22211F",
"3u    c #E5E5E5",
"3v    c #3B3B3B",
"3w    c #DCDBDA",
"3x    c #E5E0DC",
"3y    c #BABBBE",
"3z    c #ACC2E1",
"3A    c #6D75CC",
"3B    c #6453CD",
"3C    c #6759AD",
"3D    c #7165AF",
"3E    c #4C462E",
"3F    c #7E7E7A",
"3G    c #223130",
"3H    c #3A5B61",
"3I    c #100E0B",
"3J    c #E8E7E7",
"3K    c #3D3C3C",
"3L    c #2F2F2F",
"3M    c #CECED1",
"3N    c #3B3B3C",
"3O    c #585857",
"3P    c #D8D2D9",
"3Q    c #B3BDB4",
"3R    c #93BACB",
"3S    c #7C99CD",
"3T    c #5F66CF",
"3U    c #6D6FD4",
"3V    c #67A5D9",
"3W    c #63ACF5",
"3X    c #494A3F",
"3Y    c #070000",
"3Z    c #756E71",
"3&    c #59525A",
"4     c #A6A0A0",
"40    c #30281E",
"41    c #9DA8A3",
"42    c #4F4B49",
"43    c #302E2E",
"44    c #040404",
"45    c #C6C6C7",
"46    c #3F3F40",
"47    c #515151",
"48    c #B4B4B4",
"49    c #C9CFCF",
"4a    c #A0BDD6",
"4b    c #9ABAD4",
"4c    c #9F97D1",
"4d    c #7BACDA",
"4e    c #5475C0",
"4f    c #5868BC",
"4g    c #4568BE",
"4h    c #326CCE",
"4i    c #3C709C",
"4j    c #485E88",
"4k    c #6D8ACA",
"4l    c #938CCC",
"4m    c #9EA8D3",
"4n    c #70819A",
"4o    c #2B4C61",
"4p    c #6E7C73",
"4q    c #BBB8B5",
"4r    c #A9A9A9",
"4s    c #EBEBEB",
"4t    c #BBBBBB",
"4u    c #C0C0C0",
"4v    c #999999",
"4w    c #CCCCCC",
"4x    c #A7AAB6",
"4y    c #A8AEE7",
"4z    c #83ACE3",
"4A    c #7769D3",
"4B    c #5077A9",
"4C    c #003269",
"4D    c #001A54",
"4E    c #001651",
"4F    c #001654",
"4G    c #001958",
"4H    c #001B66",
"4I    c #175D9D",
"4J    c #83B4E9",
"4K    c #78B0E7",
"4L    c #7C89C3",
"4M    c #0F4988",
"4N    c #345B71",
"4O    c #F4F0EE",
"4P    c #E1E1E1",
"4Q    c #E0E0E0",
"4R    c #E2E2E2",
"4S    c #9A9AA9",
"4T    c #062043",
"4U    c #0D4976",
"4V    c #184278",
"4W    c #1E105E",
"4X    c #325552",
"4Y    c #86B6A6",
"4Z    c #A8B7A8",
"4&    c #C7B6A6",
"5     c #C7B8A6",
"50    c #AA98A6",
"51    c #0F2F5A",
"52    c #1B4987",
"53    c #114984",
"54    c #0A538F",
"55    c #1F0F4E",
"56    c #655E76",
"57    c #E3E0DE",
"58    c #DADAE1",
"59    c #BDB7DA",
"5a    c #A198B7",
"5b    c #A19A89",
"5c    c #9D988C",
"5d    c #C3BCB9",
"5e    c #E6DDDC",
"5f    c #E8E3E3",
"5g    c #E9E7E7",
"5h    c #E7E7E5",
"5i    c #EBE8E2",
"5j    c #D5CEC1",
"5k    c #A89CB8",
"5l    c #8F95B0",
"5m    c #7699B4",
"5n    c #A69EB3",
"5o    c #CCCCC3",
"5p    c #E4E4E2",
"         0 1 2 3 4 5 6 7 8 0                    ",
"   9 a b c d e f g h i j k l m n                ",
"   o p q r s t u v w x y z A B C D              ",
" 9 E F G H I J K L M N O P Q R S T D            ",
" U V W X Y Z &0 00010203040506070809            ",
"0a0b0c0d0e0f0g0h0i0j0k0l0m0n0o0p0q0r U          ",
"0s0t0u0v0w0x0y0z0A0B0C0D0E0F0G0H0I0J            ",
"0K0L0M0N0O0P0Q0R0S0T0U0V0W0X0Y0Z0&1 1011111111  ",
"12131415161718191a1b1c1d1e1f1g1h1i1j1j1j1j1j1j1k",
"1l1m1n1o1p1q1r1s1t1u1v1w1x1y1z1A1B1C1D1E1F1G1H1I",
"1J1K1L1M1N1O1P1Q1R1S1H1T1U1V1W1X1Y1Z1H1&2 201H21",
"22232425262728292a2b1H2c2d2e2f2g2h2i2j2k2l2m1H21",
"  2n2o2p2q2r2s2t2u2v1H2c2w2x2y2z2A2i2j2k2l2m1H21",
"  2B2C2D2E2F2G2H2I2J1H2K2L2M2N2O2P2i2j2k2l2m1H21",
"  2Q2R2S2T2U2V2W2X2Y1H2Z2&3 3031322i2j2k2l2m1H21",
"  333435363738393a3b1H3c3d3e3f3g3h2i2j2k2l2m1H21",
"    3i3j3k3l3m3n3o3p1H3q3r3s3t3u3v2i2j2k2l2m1H21",
"  3w3x3y3z3A3B3C3D3E1H3F3G3H3I3J3K3L1H3M3N3O1H21",
" U3P3Q3R3S3T3U3V3W3X3Y3Z3&4 40414243444546471H48",
"494a4b4c4d4e4f4g4h4i4j4k4l4m4n4o4p4q4r4s4t4u4v4w",
"4x4y4z4A4B4C4D4E4F4G4H4I4J4K4L4M4N4O3u4P4Q3u4R  ",
"4S4T4U4V4W4X4Y4Z4&5 5051525354555657 9          ",
"58595a5b5c5d5e5f5g5h5i5j5k5l5m5n5o5p            ",
" 0 o101111 U 0           U111111 U              "};

