/* XPM */
static char *biblioFrame_toolb_lecteurCodesBarre_XPM[]={
/* biblioFrame_toolb_lecteurCodesBarre */
"16 16 197 2",
"      c None",
" 0    c #C3D0D0",
" 1    c #8DA6C0",
" 2    c #6699C0",
" 3    c #668DB3",
" 4    c #919EB7",
" 5    c #CDCDCE",
" 6    c #D1D0CB",
" 7    c #B9C4C0",
" 8    c #D3E9FF",
" 9    c #DEECFF",
" a    c #384A85",
" b    c #276AA5",
" c    c #938FCA",
" d    c #606D85",
" e    c #A2B5BF",
" f    c #EAE6DF",
" g    c #D9D9D8",
" h    c #DBDBDB",
" i    c #C6C3B8",
" j    c #CDD7FF",
" k    c #D9D2FF",
" l    c #F9E8FF",
" m    c #A7D3F2",
" n    c #5292CA",
" o    c #DFFEFF",
" p    c #F7F5FF",
" q    c #254283",
" r    c #E3DAE3",
" s    c #E3E0DC",
" t    c #C4C4C5",
" u    c #D6E2ED",
" v    c #D6CFFF",
" w    c #D7DEFF",
" x    c #4A5171",
" y    c #044C4D",
" z    c #0D357D",
" A    c #204879",
" B    c #95A0B8",
" C    c #90B3E4",
" D    c #56719C",
" E    c #F0ECE3",
" F    c #D7D7D7",
" G    c #BCBCC9",
" H    c #D1EBFF",
" I    c #E5D9FF",
" J    c #4D7E82",
" K    c #2F3083",
" L    c #8C97DB",
" M    c #5E69E0",
" N    c #1E59A0",
" O    c #145184",
" P    c #6CB3EA",
" Q    c #163863",
" R    c #FFFAEE",
" S    c #D6D6D6",
" T    c #B6B6B8",
" U    c #D6DDFF",
" V    c #E4E3FF",
" W    c #0F4249",
" X    c #599BC6",
" Y    c #FFFFFF",
" Z    c #59B5E7",
" &    c #3892CD",
"0     c #4E5F9D",
"00    c #657FD8",
"01    c #2E216D",
"02    c #FEFEFE",
"03    c #DDDDDD",
"04    c #ACB9B9",
"05    c #CBE1FF",
"06    c #DAE7FF",
"07    c #124162",
"08    c #4442A0",
"09    c #6160F3",
"0a    c #021D13",
"0b    c #6B5643",
"0c    c #6B7076",
"0d    c #2D523E",
"0e    c #30291E",
"0f    c #54544F",
"0g    c #2F2F2F",
"0h    c #7B7B7D",
"0i    c #10100F",
"0j    c #8E8E8E",
"0k    c #CACACB",
"0l    c #6D8AA2",
"0m    c #ECF6FF",
"0n    c #3F6D8E",
"0o    c #2D5A87",
"0p    c #2A46C4",
"0q    c #1B1100",
"0r    c #5A524D",
"0s    c #456A7F",
"0t    c #384743",
"0u    c #746E6E",
"0v    c #444444",
"0w    c #3E3E3D",
"0x    c #818185",
"0y    c #070706",
"0z    c #838383",
"0A    c #7F8A7F",
"0B    c #88B5CC",
"0C    c #CEEDFF",
"0D    c #4F7CAF",
"0E    c #366CA9",
"0F    c #130A00",
"0G    c #585452",
"0H    c #415167",
"0I    c #233533",
"0J    c #828080",
"0K    c #424242",
"0L    c #434342",
"0M    c #87878A",
"0N    c #0C0C0C",
"0O    c #E9F0F6",
"0P    c #6C8E98",
"0Q    c #7F7EAC",
"0R    c #96A8D4",
"0S    c #ACCBFF",
"0T    c #211B07",
"0U    c #525150",
"0V    c #817F7D",
"0W    c #514F4D",
"0X    c #949393",
"0Y    c #404040",
"0Z    c #E4E0DD",
"0&    c #E9DDCD",
"1     c #6198BE",
"10    c #2F67A7",
"11    c #463DBA",
"12    c #100D00",
"13    c #52504F",
"14    c #A7A6A5",
"15    c #646362",
"16    c #9A9A9A",
"17    c #3E3E3E",
"18    c #E7E3DD",
"19    c #C9CEC9",
"1a    c #7E9FCF",
"1b    c #6956D6",
"1c    c #7D72D1",
"1d    c #181200",
"1e    c #504D47",
"1f    c #33495C",
"1g    c #373431",
"1h    c #9B9999",
"1i    c #3B3A3A",
"1j    c #3A3A3A",
"1k    c #7E7E81",
"1l    c #050504",
"1m    c #D2D2D2",
"1n    c #B1C0C6",
"1o    c #A3ABD0",
"1p    c #617ED9",
"1q    c #7A77E2",
"1r    c #5AA4FF",
"1s    c #2F3228",
"1t    c #635355",
"1u    c #9487A3",
"1v    c #5F5240",
"1w    c #4A5B52",
"1x    c #5F5A56",
"1y    c #565656",
"1z    c #838384",
"1A    c #202020",
"1B    c #969696",
"1C    c #A8B5C2",
"1D    c #92B1EE",
"1E    c #777DD1",
"1F    c #0C578E",
"1G    c #00255D",
"1H    c #002666",
"1I    c #002B6F",
"1J    c #105EB8",
"1K    c #87BBFB",
"1L    c #8BA9EC",
"1M    c #002359",
"1N    c #FAF5EF",
"1O    c #F9F9F9",
"1P    c #F7F7F7",
"1Q    c #F3F3F3",
"1R    c #9696B0",
"1S    c #082F62",
"1T    c #1B2655",
"1U    c #3B4146",
"1V    c #A1C0AF",
"1W    c #DFCDBE",
"1X    c #DBCAB7",
"1Y    c #5F667F",
"1Z    c #1E397C",
"1&    c #004085",
"2     c #24184E",
"20    c #DAD6D0",
"21    c #DFDFDF",
"22    c #D5D5D5",
"23    c #DADADA",
"       0 1 2 3 4 5              ",
"   6 7 8 9 a b c d e f g        ",
" h i j k l m n o p q r s        ",
" t u v w x y z A B C D E F      ",
" G H I J K L M N O P Q R F S S  ",
" T U V W X Y Z &0 0001 Y Y Y0203",
"0405060708090a0b0c0d0e0f0g0h0i0j",
"0k0l0m0n0o0p0q0r0s0t0u0v0w0x0y0z",
"  0A0B0C0D0E0F0G0H0I0J0K0L0M0N0z",
"  0O0P0Q0R0S0T0U0V0W0X0Y0L0M0N0z",
"  0Z0&1 10111213141516170L0M0N0z",
"  18191a1b1c1d1e1f1g1h1i1j1k1l0z",
"1m1n1o1p1q1r1s1t1u1v1w1x1y1z1A1B",
"1C1D1E1F1G1H1I1J1K1L1M1N1O1P1Q  ",
"1R1S1T1U1V1W1X1Y1Z1&2 20 h      ",
"21221m22 h      221m1m23        "};

