/* XPM */
static char *biblioFrame_toolb_fusion_genre_XPM[]={
/* biblioFrame_toolb_fusion_genre */
"16 16 121 2",
"      c None",
" 0    c #F8F9F9",
" 1    c #F9F9F9",
" 2    c #F8F8F9",
" 3    c #F4F5F6",
" 4    c #EDEFF1",
" 5    c #E2E5E8",
" 6    c #C0C0C0",
" 7    c #FDFDFD",
" 8    c #FCFCFC",
" 9    c #F6F7F8",
" a    c #EEF0F1",
" b    c #F9F9FA",
" c    c #FEFEFE",
" d    c #FAFAFA",
" e    c #EAECEE",
" f    c #E3E6E8",
" g    c #ECEEEF",
" h    c #F2F3F4",
" i    c #F1F2F3",
" j    c #EDEFF0",
" k    c #EFF1F2",
" l    c #E0E3E6",
" m    c #F4F5F5",
" n    c #F6F7F7",
" o    c #F5F6F7",
" p    c #F5F8F5",
" q    c #E5EDE4",
" r    c #DEE8DE",
" s    c #EBEDEF",
" t    c #F7F7F8",
" u    c #F5F7F4",
" v    c #B9D3A4",
" w    c #C5DAB8",
" x    c #D7E4CF",
" y    c #D3E2CC",
" z    c #D9E6D1",
" A    c #ABCB91",
" B    c #E1EBDD",
" C    c #FBFBFB",
" D    c #E8EBED",
" E    c #DADFE2",
" F    c #F0F2F3",
" G    c #EEF2EF",
" H    c #A2C487",
" I    c #8FBA5E",
" J    c #94C15D",
" K    c #98C55D",
" L    c #98C65D",
" M    c #95C15D",
" N    c #90BB5E",
" O    c #90B96A",
" P    c #DAE7D4",
" Q    c #EAEDEF",
" R    c #E1E4E7",
" S    c #E9ECEE",
" T    c #E5EAE7",
" U    c #84B160",
" V    c #6AA130",
" W    c #70A730",
" X    c #73AB2F",
" Y    c #71A830",
" Z    c #6BA230",
" &    c #6CA23A",
"0     c #D3E2CA",
"00    c #F1F2F4",
"01    c #DFE3E6",
"02    c #E2E6E8",
"03    c #E7EAEC",
"04    c #DEE5E2",
"05    c #7FAD57",
"06    c #96BB79",
"07    c #B3CBA4",
"08    c #BDD4AC",
"09    c #C3D9B1",
"0a    c #68A135",
"0b    c #D2E2C7",
"0c    c #FAFAFB",
"0d    c #EDF0F1",
"0e    c #E6E9EC",
"0f    c #DCE1E4",
"0g    c #DADFE3",
"0h    c #E0E4E7",
"0i    c #D7DFDD",
"0j    c #C2D2C2",
"0k    c #DBE0E4",
"0l    c #EDEEF0",
"0m    c #CFDFC7",
"0n    c #E8EBEE",
"0o    c #E2E6E9",
"0p    c #D9DEE2",
"0q    c #D3D9DD",
"0r    c #D6DCE0",
"0s    c #D7DDE1",
"0t    c #D3DADE",
"0u    c #F2F3F5",
"0v    c #E3E7E9",
"0w    c #DDE1E5",
"0x    c #D4DADF",
"0y    c #CCD3D8",
"0z    c #CFD5DA",
"0A    c #CFD6DA",
"0B    c #CED5DA",
"0C    c #CDD4D9",
"0D    c #E0E4E6",
"0E    c #E5E9EB",
"0F    c #DCE1E5",
"0G    c #CFD6DB",
"0H    c #E1E5E7",
"0I    c #DEE2E6",
"0J    c #D1D7DC",
"0K    c #CAD2D7",
"0L    c #D8DEE2",
"0M    c #D9DFE2",
"0N    c #D8DDE1",
"0O    c #D3D9DE",
"0P    c #CBD2D7",
"0Q    c #C4CDD3",
"0R    c #C7CFD4",
"0S    c #C2CBD1",
"0T    c #BCC7CD",
"   0 1 1 2 3 4 5 6 6 6 6 6 6 6 6",
" 1 7 7 7 7 8 9 a 9 6 6 6 6 6 6 6",
" b 7 c 7 7 7 d e a f 6 6 6 6 6 6",
" b 7 c c 7 7 g h i j h k e l 6 6",
" b 7 c 7 7 7 m 7 7 7 7 8 n g o 6",
" 1 7 7 p q 8 3 7 r 7 7 7 d e o s",
" t 8 u v w x y z A B 7 7 C   D E",
" F G H I J K L M N O P 7 C   Q R",
" S T U V W X X Y Z &0  8 100 S01",
"02030405060708090a0b 80c 30d0e0f",
"0g010h0i0j0k0l 10m0c 2 3 k0n0o0p",
"0q0r0s0s0r0t0e F0u h F 4 D0v0w0x",
"0y0z0A0A0B0C0D0n Q Q D0E 50F0s0G",
" 6 6 6 6 6 6 E0H0o020h0I0g0r0J0K",
" 6 6 6 6 6 60q0L0M0M0N0r0O0G0P0Q",
" 6 6 6 6 6 60P0z0G0G0B0C0K0R0S0T"};

