/* XPM */
static char *biblioFrame_WxToolButton_about_XPM[]={
/* biblioFrame_WxToolButton_about */
"16 16 17 1",
"      c None",
"0     c #94DEB5",
"1     c #EFF7FF",
"2     c #D6FF94",
"3     c #9C21DE",
"4     c #EFE7F7",
"5     c #7BADFF",
"6     c #FF29C6",
"7     c #3963D6",
"8     c #4A8CFF",
"9     c #3973FF",
"a     c #2963FF",
"b     c #6B9CFF",
"c     c #5A94FF",
"d     c #185AFF",
"e     c #0852FF",
"f     c #FF42FF",
"                ",
"       00       ",
"      0 12      ",
"     0 3342     ",
"    0 3  042    ",
"   0 35  6042   ",
"  0 3557789042  ",
" 0 355   69a042 ",
"0 355bc  6ade042",
"0135bc8  6def042",
" 240c89  6ef042 ",
"  2409    6042  ",
"   2407777042   ",
"    240ef042    ",
"     240042     ",
"      2442      "};

