/* XPM */
static char *biblioFrame_toolb_recherche_internet_XPM[]={
/* biblioFrame_toolb_recherche_internet */
"16 16 127 2",
"      c None",
" 0    c #D9D9D9",
" 1    c #DBDBDB",
" 2    c #D0D0D0",
" 3    c #B3B3B3",
" 4    c #C5C5C5",
" 5    c #B5B5B5",
" 6    c #BFBFBF",
" 7    c #DADADA",
" 8    c #C3C3C3",
" 9    c #CDCCCC",
" a    c #F0F0F0",
" b    c #D0D0CF",
" c    c #CACACA",
" d    c #E8E8E8",
" e    c #E5E5E5",
" f    c #A6A6A6",
" g    c #D2D2D2",
" h    c #C6C6C6",
" i    c #CECDCD",
" j    c #BDBEBE",
" k    c #D3D2D4",
" l    c #D5D6D6",
" m    c #C6C6C5",
" n    c #AFAFAE",
" o    c #E6E6E6",
" p    c #B6B6B6",
" q    c #DDDDDD",
" r    c #B1B1B1",
" s    c #E4E3E3",
" t    c #BEC0C2",
" u    c #EAEDEC",
" v    c #F5F5F6",
" w    c #F5F6F7",
" x    c #EFEFF1",
" y    c #D0D1D3",
" z    c #CAC9C9",
" A    c #B1B1B0",
" B    c #C0C1C1",
" C    c #E7E9EB",
" D    c #FEFFFF",
" E    c #F2F4F5",
" F    c #E4E6E6",
" G    c #E4E5E7",
" H    c #E7EAED",
" I    c #ABACAD",
" J    c #B9B8B8",
" K    c #DCDCDC",
" L    c #ADADAD",
" M    c #C1C2C1",
" N    c #F0F5F9",
" O    c #D1D5D5",
" P    c #C5CBCD",
" Q    c #CDD2D4",
" R    c #D8DEE0",
" S    c #E1E7EB",
" T    c #ADAFAF",
" U    c #A1A1A1",
" V    c #CCCBCA",
" W    c #C5CDD0",
" X    c #CED3D7",
" Y    c #D5DBDD",
" Z    c #DCE2E3",
" &    c #E6ECED",
"0     c #DDE7EB",
"00    c #B2B0B1",
"01    c #A7A7A7",
"02    c #E1E1E1",
"03    c #CFCECD",
"04    c #BCBEBF",
"05    c #CCD7DD",
"06    c #DFE7EC",
"07    c #E2EBF0",
"08    c #DBE6EB",
"09    c #A9ACAF",
"0a    c #EBEAEA",
"0b    c #C0C0C0",
"0c    c #F3F3F3",
"0d    c #E3E3E3",
"0e    c #E0E0E0",
"0f    c #838383",
"0g    c #DFDEDD",
"0h    c #D5D5D4",
"0i    c #B5B9BB",
"0j    c #ADB4B6",
"0k    c #C9C9C9",
"0l    c #F8F7F6",
"0m    c #B4B3B3",
"0n    c #676767",
"0o    c #3C3C3C",
"0p    c #F5F5F5",
"0q    c #E2E2E2",
"0r    c #8B8B8B",
"0s    c #8E8E8E",
"0t    c #C7C6C6",
"0u    c #D0CFCF",
"0v    c #A2A2A1",
"0w    c #A0A0A0",
"0x    c #000000",
"0y    c #707070",
"0z    c #5A5A5A",
"0A    c #F2F2F2",
"0B    c #D6D6D6",
"0C    c #B7B7B7",
"0D    c #B2B2B2",
"0E    c #D1D1D1",
"0F    c #F6F6F6",
"0G    c #101010",
"0H    c #060606",
"0I    c #262626",
"0J    c #7D7D7D",
"0K    c #DEDEDE",
"0L    c #E9E9E9",
"0M    c #ECECEC",
"0N    c #363634",
"0O    c #272727",
"0P    c #2E2E2E",
"0Q    c #555555",
"0R    c #727272",
"0S    c #EAEAEA",
"0T    c #383836",
"0U    c #202020",
"0V    c #0A0A0A",
"0W    c #353535",
"0X    c #323232",
"0Y    c #020202",
"0Z    c #939393",
"                                ",
"   0 1 2 3 4 4 5 6 7 1          ",
"   1 8 9 a b c d e f 1 7        ",
"   g h i j k l m n o p q        ",
"   r s t u v w x y z A q        ",
"   5 B C D E F G H I J K        ",
"   L M N O P Q R S T r q        ",
"   U V W X Y Z &0 000102        ",
"   r030405060708090a0b0c0d      ",
"  0e0f0g0h0i0j0k0l0m0n0o0p0q    ",
"   q q0r0s0t0u0v0w0n0x0y0z0A02  ",
"     q0d0B0C0D0E0F0G0H0I0J0n0A  ",
"         10K0K K0L0M0N0O0P0Q0R  ",
"                 0 d0S0T0U0V0W  ",
"                   0 d d0X0Y0Z  ",
"                                "};

