/* XPM */
static char *biblioFrame_WxToolButton_stat_XPM[]={
/* biblioFrame_WxToolButton_stat */
"16 16 6 1",
"      c None",
"0     c #000000",
"1     c #08FF00",
"2     c #FFFFFF",
"3     c #08FFFF",
"4     c #FFFF00",
"                ",
"                ",
"            000 ",
"            010 ",
"    000     010 ",
"    020     010 ",
"    020 000 010 ",
" 000020 030 010 ",
" 040020 030 010 ",
" 040020 030 010 ",
" 040020 030 010 ",
" 040020 030 010 ",
" 040020 030 010 ",
" 040020 030 010 ",
" 000000 000 000 ",
"                "};

