/* XPM */
static char *biblioFrame_WxToolButton_colonne_XPM[]={
/* biblioFrame_WxToolButton_colonne */
"16 16 2 1",
"      c None",
"0     c #000000",
"                ",
" 0000000000000  ",
" 0   0   0   0  ",
" 0   0   0   0  ",
" 0000000000000  ",
" 0   0   0   0  ",
" 0   0   0   0  ",
" 0   0   0   0  ",
" 0   0   0   0  ",
" 0   0   0   0  ",
" 0   0   0   0  ",
" 0   0   0   0  ",
" 0   0   0   0  ",
" 0   0   0   0  ",
" 0000000000000  ",
"                "};

