/* XPM */
static char *biblioFrame_WxToolButton_tri_XPM[]={
/* biblioFrame_WxToolButton_tri */
"16 16 65 2",
"      c None",
" 0    c #009400",
" 1    c #21E708",
" 2    c #10A518",
" 3    c #52C64A",
" 4    c #42C639",
" 5    c #4A7BDE",
" 6    c #10D600",
" 7    c #9C7B18",
" 8    c #7B7BD6",
" 9    c #ADDEF7",
" a    c #8CDEFF",
" b    c #5ACEFF",
" c    c #6BCEFF",
" d    c #6BBDF7",
" e    c #395ACE",
" f    c #7B5A18",
" g    c #31B529",
" h    c #5A8CDE",
" i    c #DEEFFF",
" j    c #299CF7",
" k    c #087BEF",
" l    c #8C2963",
" m    c #9C3963",
" n    c #8CEFFF",
" o    c #1839BD",
" p    c #BD9C29",
" q    c #AD8C29",
" r    c #4AADF7",
" s    c #399CF7",
" t    c #7B1852",
" u    c #10B500",
" v    c #31D618",
" w    c #63F74A",
" x    c #7BBDE7",
" y    c #4A0810",
" z    c #DECE31",
" A    c #EFDE42",
" B    c #5A2910",
" C    c #8C1821",
" D    c #8C2952",
" E    c #31C610",
" F    c #8C6B21",
" G    c #52D618",
" H    c #394AC6",
" I    c #10A500",
" J    c #395AC6",
" K    c #1829C6",
" L    c #9CEFFF",
" M    c #ADFFFF",
" N    c #BD3963",
" O    c #63E752",
" P    c #7BADDE",
" Q    c #6B6BCE",
" R    c #4A6BD6",
" S    c #21C618",
" T    c #84E773",
" U    c #1818B5",
" V    c #42B518",
" W    c #52C642",
" X    c #31B531",
" Y    c #21B529",
" Z    c #21A521",
" &    c #4A5ACE",
"0     c #00B500",
"                                ",
"                                ",
"       0 1 1 0 2 3 4 5 5        ",
"     0 6 7 0   8 9 a b c d e    ",
"     0 f f g h   i j k l m n o  ",
" 0 0 1 p q 6 0 0 r s t u v w x  ",
"   0 y z A B C t j D E F F G 9 H",
"     I F F E t k t C B A z y 4 J",
"     0 v u 4 b j 0 0 6 q p 1 0 0",
"       0 0 K d r L M N f f O P  ",
"           Q R a M M S 7 6 T U  ",
"             V W X Y 1 1 Z &    ",
"               0 0 00  0        ",
"                                ",
"                                ",
"                                "};

