/* XPM */
static char *biblioFrame_toolb_parametres_XPM[]={
/* biblioFrame_toolb_parametres */
"16 16 208 2",
"      c None",
" 0    c #8093BD",
" 1    c #97ABD7",
" 2    c #98ADD8",
" 3    c #9BAED7",
" 4    c #99ADD7",
" 5    c #98ACD8",
" 6    c #90A4CF",
" 7    c #405277",
" 8    c #010102",
" 9    c #7E94C6",
" a    c #D8DBE2",
" b    c #CAD8F2",
" c    c #CADAF7",
" d    c #CEDCF4",
" e    c #E7E9EF",
" f    c #F0F1F3",
" g    c #EFF0F1",
" h    c #DAE2F0",
" i    c #C9D9F6",
" j    c #D3DAE7",
" k    c #BECAE7",
" l    c #111C33",
" m    c #8BA5DC",
" n    c #BACFF4",
" o    c #BFD4F7",
" p    c #C0D6F7",
" q    c #DCE1E9",
" r    c #F3F3F4",
" s    c #DDDFE4",
" t    c #FBFBFB",
" u    c #ECEDEE",
" v    c #C9D9F0",
" w    c #C0D5F7",
" x    c #BCD1F5",
" y    c #B4C7F0",
" z    c #1B2946",
" A    c #809DDA",
" B    c #ACC5F2",
" C    c #B1CCF5",
" D    c #B2CEF6",
" E    c #B3CEF5",
" F    c #DFE0E2",
" G    c #ECEFF8",
" H    c #EBEBEB",
" I    c #F9F9FA",
" J    c #E3E7EF",
" K    c #C5D3E7",
" L    c #B2CDF6",
" M    c #AEC8F3",
" N    c #A5BDED",
" O    c #1A2846",
" P    c #688BD5",
" Q    c #99B8EF",
" R    c #A0C1F3",
" S    c #9DC1F4",
" T    c #90B7F2",
" U    c #B0B7C2",
" V    c #F0F0F1",
" W    c #F6F6F6",
" X    c #F7F7F7",
" Y    c #DEDFDF",
" Z    c #AFC4E4",
" &    c #A1C3F5",
"0     c #9DBDF1",
"00    c #92AFEA",
"01    c #182745",
"02    c #3162CA",
"03    c #5385DF",
"04    c #99B0D2",
"05    c #A6B7D0",
"06    c #739DDC",
"07    c #6590D0",
"08    c #A4A7AB",
"09    c #CDCDCE",
"0a    c #BFC0C0",
"0b    c #8595AD",
"0c    c #7AA7E9",
"0d    c #BACAE1",
"0e    c #C5D0E1",
"0f    c #A2BBE5",
"0g    c #7FA1E6",
"0h    c #172645",
"0i    c #3263CA",
"0j    c #97A7C6",
"0k    c #BEBFC1",
"0l    c #DDE3F0",
"0m    c #CFD1D5",
"0n    c #6897DD",
"0o    c #5A8FDF",
"0p    c #688FC8",
"0q    c #638ECF",
"0r    c #5691EA",
"0s    c #9DAFCA",
"0t    c #EBECEE",
"0u    c #CCD1DB",
"0v    c #D1D3D5",
"0w    c #7F9DDA",
"0x    c #152444",
"0y    c #3A68C9",
"0z    c #B8BBC5",
"0A    c #D1D4DC",
"0B    c #E9E9E9",
"0C    c #D3D9E5",
"0D    c #82A0CD",
"0E    c #5D97ED",
"0F    c #5E97EC",
"0G    c #BABDC4",
"0H    c #E9ECF3",
"0I    c #DDDDDD",
"0J    c #DBDFE9",
"0K    c #8A9FCD",
"0L    c #142344",
"0M    c #406ECD",
"0N    c #94A2BD",
"0O    c #E9E9EA",
"0P    c #F4F4F4",
"0Q    c #C8C9CB",
"0R    c #759FDC",
"0S    c #689EEE",
"0T    c #9AAAC0",
"0U    c #C8C9CC",
"0V    c #698BD1",
"0W    c #132344",
"0X    c #4B76CF",
"0Y    c #6E98E2",
"0Z    c #93A6C4",
"0&    c #9EABBF",
"1     c #85A6D7",
"10    c #76A7F0",
"11    c #6F98D6",
"12    c #7C8FAB",
"13    c #6C8AB6",
"14    c #79A6E9",
"15    c #94A8C5",
"16    c #7F9ED3",
"17    c #5E89E0",
"18    c #577ED1",
"19    c #7AA3EA",
"1a    c #7896C5",
"1b    c #7690B6",
"1c    c #85B0F1",
"1d    c #7696C7",
"1e    c #A1A1A1",
"1f    c #637085",
"1g    c #84AFF0",
"1h    c #7B9CCD",
"1i    c #768EB2",
"1j    c #7DA6EA",
"1k    c #6F95E3",
"1l    c #142444",
"1m    c #6387D4",
"1n    c #8BAEED",
"1o    c #8593A9",
"1p    c #7B7F85",
"1q    c #91B7EE",
"1r    c #94BBF3",
"1s    c #819FC9",
"1t    c #A2A2A2",
"1u    c #657182",
"1v    c #93BAF2",
"1w    c #8397B3",
"1x    c #838486",
"1y    c #87A8E1",
"1z    c #152545",
"1A    c #6D8FD6",
"1B    c #9AB9EF",
"1C    c #96A3B8",
"1D    c #898E93",
"1E    c #9FC0F0",
"1F    c #A3C4F5",
"1G    c #9DBCEA",
"1H    c #B0B5BC",
"1I    c #76859B",
"1J    c #A2C3F4",
"1K    c #93A4BF",
"1L    c #949597",
"1M    c #93B0E1",
"1N    c #8FACE9",
"1O    c #718FD2",
"1P    c #98A4B9",
"1Q    c #A0B4D7",
"1R    c #818FA8",
"1S    c #ABC5F0",
"1T    c #ADC8F4",
"1U    c #9BB4DB",
"1V    c #98AFD5",
"1W    c #A9C2EA",
"1X    c #828FA6",
"1Y    c #9BACCA",
"1Z    c #92A6D4",
"1&    c #152442",
"2     c #3B5286",
"20    c #8E9DC2",
"21    c #A9BEE9",
"22    c #ADC2EF",
"23    c #ADC3F0",
"24    c #ACC2EE",
"25    c #97A5C6",
"26    c #667EB6",
"27    c #050912",
"28    c #010204",
"29    c #14223E",
"2a    c #1F2F50",
"2b    c #202F50",
"2c    c #1B2B4C",
"2d    c #050A14",
"2e    c #000000",
"   0 1 2 2 2 2 3 4 2 2 2 5 6 7 8",
" 9 a b c c d e f g h c c i j k l",
" m n o p p q r s t u v p w x y z",
" A B C D E F G H I J K D L M N O",
" P Q R S T U V W X Y Z & &0 0001",
"02030405060708090a0b0c0d0e0f0g0h",
"0i0j0k0l0m0n0o0p0q0r0s0t0u0v0w0x",
"0y0z0A0B0C0D0E0E0E0F0G0H0I0J0K0L",
"0M0N0O0P0Q0R0S0S0S0S0T0O0P0U0V0W",
"0X0Y0Z0&1 101112131014150&16170W",
"18191a1b1c1c1d1e1f1g1c1h1i1j1k1l",
"1m1n1o1p1q1r1s1t1u1v1r1w1x1y0g1z",
"1A1B1C1D1E1F1G1H1I1J1F1K1L1M1N0h",
"1O1P1Q1R1S1T1T1U1V1T1T1W1X1Y1Z1&",
"2 202122232323232323232324252627",
"28292a2b2b2b2b2b2b2b2b2b2b2c2d2e"};

