/* XPM */
static char *choix_colonnes_WxBitmapButton_haut_XPM[]={
/* choix_colonnes_WxBitmapButton_haut */
"18 35 8 1",
"      c None",
"0     c #312F31",
"1     c #E3E3E3",
"2     c #575557",
"3     c #000000",
"4     c #8F918F",
"5     c #BBBDBB",
"6     c #6C6C6C",
"                  ",
"                  ",
"        01        ",
"        01        ",
"       230        ",
"       230        ",
"      43332       ",
"      43332       ",
"     5333334      ",
"     5333334      ",
"    133333335     ",
"    133333335     ",
"    0333333331    ",
"    0333333331    ",
"   23333333330    ",
"   23333333330    ",
"  6333333333332   ",
"  6333333333332   ",
" 433324333643336  ",
" 4331 43332  036  ",
"134   43332   535 ",
"52    43332    64 ",
"      43332       ",
"      43332       ",
"      43332       ",
"      43332       ",
"      43332       ",
"      43332       ",
"      43332       ",
"      43332       ",
"      43332       ",
"      43332       ",
"      43332       ",
"       230        ",
"                  "};

