/* XPM */
static char *choix_colonnes_WxBitmapButton1_XPM[]={
/* choix_colonnes_WxBitmapButton1 */
"35 18 8 1",
"      c None",
"0     c #BBBDBB",
"1     c #E3E3E3",
"2     c #575557",
"3     c #000000",
"4     c #8F918F",
"5     c #6C6C6C",
"6     c #312F31",
"             01                    ",
"             2344                  ",
"              43355                ",
"               333322              ",
"               1333336611          ",
"                23333333300        ",
"  444444444444444333333333344      ",
" 233333333333333333333333333322    ",
" 33333333333333333333333333333366  ",
" 63333333333333333333333333336611  ",
"  222222222222225333333333322      ",
"                43333333344        ",
"                333333300          ",
"               63336611            ",
"              03322                ",
"             5355                  ",
"             40                    ",
"                                   "};

