/* XPM */
static char *fusionner_xpm[] = {
/* columns rows colors chars-per-pixel */
"16 16 100 2",
".  c Black",
"1  c #5A5A5F",
"S  c #C3C3C3",
"j  c #B4B4B6",
"@. c #C3C3C5",
"P  c #D2D2D2",
"0  c #080809",
"q  c #08080A",
"Q  c #535355",
"[  c #808084",
"r  c #8F8F92",
"-  c #9E9EA1",
"N  c #BCBCBC",
"X  c #010101",
"2  c #E9E9E9",
",  c #E9E9EA",
"T  c #6A6A6D",
"y  c #A6A6A9",
"A  c #C4C4C4",
"i  c #C4C4C5",
"I  c #D3D3D3",
"E  c #E2E2E2",
"O. c #818184",
"$  c #818186",
"k  c #AEAEB0",
"#  c #020202",
"(  c #BDBDBF",
"*  c #020203",
"p  c #111113",
"F  c #202022",
"|  c #4D4D4F",
"@  c #4D4D54",
"s  c #C5C5C5",
"_  c #0A0A0A",
"+. c #0A0A0B",
"{  c #373739",
".. c #828284",
"8  c #828288",
"B  c #AFAFB0",
"t  c #919196",
"e  c #828289",
"5  c #A0A0A4",
"O  c #030304",
"%  c #CDCDD0",
"}  c #EBEBEC",
"G  c #212123",
" . c #4E4E50",
"6  c #4E4E52",
"z  c #6C6C70",
"J  c #99999C",
"!  c #D5D5D6",
"v  c #1A1A1C",
";  c #47474C",
"d  c #929297",
"m  c #BFBFC0",
"o  c #040404",
"   c #040405",
"+  c #040406",
"C  c #131314",
"=  c #4F4F57",
"D  c #7C7C7F",
"Z  c #9A9A9D",
"R  c #B8B8BA",
"3  c #B8B8BB",
"`  c #C7C7C9",
"o. c #D6D6D8",
"g  c #1B1B1D",
"4  c #48484D",
"x  c #B1B1B2",
"c  c #B1B1B3",
"7  c #C0C0C2",
"9  c #DEDEDE",
"~  c #141416",
">  c #EDEDED",
"&  c #5F5F64",
"H  c #7D7D7F",
"V  c #7D7D80",
"'  c #9B9B9E",
"Y  c #C8C8C9",
":  c #B9B9BC",
"L  c #C8C8CA",
"X. c #D7D7D8",
"l  c #58585D",
"W  c #A3A3A6",
"U  c #B2B2B4",
"n  c #C1C1C1",
"u  c #D0D0D0",
"w  c #C1C1C3",
"^  c #151516",
"#. c #333335",
"b  c #7E7E81",
"]  c #9C9C9E",
"M  c #BABABC",
"K  c #68686B",
"<  c #59595E",
"/  c #A4A4A6",
"h  c #B3B3B5",
"a  c #161618",
")  c #343436",
"f  c #8E8E92",
/* pixels */
"  . X o . . . . . . . . O X . + ",
"@ # $ % & * . . . . * & % $ * = ",
"- ; : > , < . . . . 1 2 > 3 4 5 ",
"6 7 8 9 9 7 0 . . q w 9 9 e 7 6 ",
"O r t y u i p a a p s u y d f O ",
". g h j k l z x c z l k j h v . ",
". . b n m M N B B N M m n V . . ",
". C Z A S m D F G H m S A J C . ",
"K L P I P U . . . . U P I P Y T ",
"R E W Q k ! ~ . . ^ ! k Q / E ( ",
"D ) X . _ ` ' X X ] ` _ . X ) [ ",
". . . . . { } |  .} { . . . . . ",
". . . . . . ..X.o.O.. . . . . . ",
". . . . . . +.@.@.+.. . . . . . ",
". . . . . . . ) #.. . . . . . . ",
". . . . . . . . . . . . . . . . "
};
