/* XPM */
static char *inserer_isbn_xpm[] = {
/* columns rows colors chars-per-pixel */
"16 16 85 1",
"e c #15C115",
"c c #41D82E",
"( c #0B670B",
"* c #CDFACD",
"+ c #81E272",
"z c #39A139",
"  c None",
"N c #46B346",
"K c #0C6B0C",
"o c #9FC570",
"7 c #85BE52",
"I c #17CF17",
", c #86D468",
"H c #18DF18",
": c #FC0300",
"r c #63D84D",
"D c #18DC18",
"! c #75A575",
"_ c #D71002",
"1 c #20E720",
"0 c #19E619",
"C c #188718",
"L c #14B914",
"F c #CCCCCC",
"E c #0A5F0A",
"h c #DBDBDB",
"= c #6EED6E",
"b c #34CB34",
"W c #109310",
"< c #50EC50",
"v c #3FE03F",
"l c #A0A0A0",
"p c #119D11",
"J c #119A11",
"w c #1CB213",
"M c #B7B7B7",
"G c #3AD03A",
"; c #4DCA2B",
"2 c #C2F8C2",
"@ c #81D262",
"3 c #D5D5D5",
"T c #39BD39",
"O c #8BDD76",
"$ c #E2361C",
"S c #18DE18",
"m c #BFE8BF",
"> c #E42D15",
"Q c #0D740D",
"Z c #0E840E",
"4 c #3DD43D",
"Y c #BFBFBF",
"d c #CECECE",
"f c #DDDDDD",
"P c #13AE13",
"g c #FBFBFB",
"s c #C5F9C5",
"V c #30B930",
"a c #51DB40",
"/ c #094E09",
". c Black",
"A c #19E219",
"y c #F0FDF0",
"6 c #975D0A",
"% c #88EA80",
"q c #52E852",
"9 c #21E721",
"R c #108F10",
"^ c #256625",
"k c #B9B9B9",
"& c #68EF68",
"t c #A3F5A3",
"5 c #1FE71F",
"i c #42BD42",
"8 c #5AED5A",
"U c #C2F7C2",
") c #EE0801",
"- c #48EB48",
"u c #D1FAD1",
"x c #0F8D0F",
"n c #40D740",
"X c #E72D18",
"~ c #657E65",
"# c #CA4B1C",
"B c #2FC52F",
"j c #BBBBBB",
/* pixels */
"  ..   ...    . ",
"  ..   ...    . ",
"  ..   ...    . ",
"  ..   ...    . ",
"  ..   ...    . ",
"  ..   XoO+@# . ",
"  ..  $%&* =-;: ",
"  .. >,<1234516 ",
"  .. 78902 q01we",
"  .. rt22y u22ip",
"     asdfghjklzx",
"     cvbnmMNBVCZ",
"     ASD02FGHJK ",
"      LPIUYTREK ",
"       WQ!~^/(  ",
"         )_     "
};
