/* XPM */
static char *nouv_autre_WxBitmapButton1_ouvrir_XPM[]={
/* nouv_autre_WxBitmapButton1_ouvrir */
"16 16 43 1",
"      c None",
"0     c #4B6CB4",
"1     c #759ACF",
"2     c #B6B1A7",
"3     c #F8F5B2",
"4     c #A6BEE9",
"5     c #F8F5AF",
"6     c #F8E390",
"7     c #F8F0A8",
"8     c #E1D39B",
"9     c #F8E492",
"a     c #F8E592",
"b     c #F8E491",
"c     c #F6E08C",
"d     c #F5DD86",
"e     c #F3DA81",
"f     c #F1D77C",
"g     c #EFD173",
"h     c #DAB04F",
"i     c #AF8E4B",
"j     c #F0DE98",
"k     c #F6E08B",
"l     c #F4DC86",
"m     c #F3DA80",
"n     c #F1D67B",
"o     c #F0D377",
"p     c #EBCA6C",
"q     c #F8ECA1",
"r     c #DFD29B",
"s     c #EFD071",
"t     c #F0DE97",
"u     c #F7E390",
"v     c #ECC967",
"w     c #DDD09E",
"x     c #F7E38E",
"y     c #F6DF89",
"z     c #F4DC85",
"A     c #F2D880",
"B     c #F1D57A",
"C     c #F0D275",
"D     c #EFCF71",
"E     c #EDCC6C",
"F     c #DDBB65",
"                ",
"          000   ",
"         01 10 0",
" 2222        100",
"233332       040",
"2333562222220000",
"2335666666662   ",
"235622222222222 ",
"257289abcdefghi ",
"2762ja6klmnopi  ",
"2q2rabklenoshi  ",
"262tuklmnosvi   ",
"22wxyzABCDEhi   ",
"22Fhhhhhhhhi    ",
"2iiiiiiiiiii    ",
"                "};

