/* XPM */
static char *biblioFrame_XPM[]={
/* biblioFrame */
"32 32 77 2",
"      c None",
" 0    c #FFCC99",
" 1    c #222222",
" 2    c #A0A0A4",
" 3    c #996666",
" 4    c #CCCCCC",
" 5    c #111111",
" 6    c #000000",
" 7    c #777777",
" 8    c #9999CC",
" 9    c #555555",
" a    c #FFFFCC",
" b    c #FF9999",
" c    c #CC9966",
" d    c #550000",
" e    c #000033",
" f    c #444444",
" g    c #DDDDDD",
" h    c #FFCCCC",
" i    c #CC6666",
" j    c #CC6633",
" k    c #CC3366",
" l    c #333300",
" m    c #CCFFFF",
" n    c #FFCCFF",
" o    c #663333",
" p    c #993333",
" q    c #220000",
" r    c #996699",
" s    c #339966",
" t    c #66CC66",
" u    c #99CCFF",
" v    c #9999FF",
" w    c #996633",
" x    c #003333",
" y    c #336666",
" z    c #666666",
" A    c #669966",
" B    c #CC9999",
" C    c #666699",
" D    c #330000",
" E    c #663366",
" F    c #336633",
" G    c #CC99FF",
" H    c #6699FF",
" I    c #669999",
" J    c #999966",
" K    c #663300",
" L    c #330033",
" M    c #000022",
" N    c #CC6699",
" O    c #FF9966",
" P    c #333333",
" Q    c #66CCCC",
" R    c #999999",
" S    c #666633",
" T    c #333366",
" U    c #CCCC99",
" V    c #FFFBF0",
" W    c #660033",
" X    c #66CCFF",
" Y    c #FF6666",
" Z    c #99CC99",
" &    c #CCCCFF",
"0     c #6699CC",
"00    c #9966CC",
"01    c #99CCCC",
"02    c #990033",
"03    c #002200",
"04    c #CC99CC",
"05    c #FF6699",
"06    c #993366",
"07    c #C0C0C0",
"08    c #003300",
"09    c #CCCC66",
"0a    c #CC9933",
"0b    c #663399",
"                                                                ",
"                                                                ",
"                                                                ",
"                                                                ",
"                             0 1     2                          ",
"                             3     4 2                          ",
"                             2     4 5 6         7              ",
"                   8 9     a b b c d e 6         f              ",
"                 2 1 g   7 h i j k l 5 6         5              ",
"                 2 m   n 6 h o p p q 1 2 2 r 2 2 5              ",
"                 s t u v 5   i i w o x y z A y z 1              ",
"               B 7 3 C 3 e 0 3 p 3 D 6 E 9 y 9 F 6              ",
"                 G H H G q n j o i D 1 y I I I 7 5              ",
"               J K x K L M a N L O P 1 y 7 Q R z 5              ",
"               J S K K K 1   i N N o 6 T E y f P 6              ",
"               U r z C r M V i W B d 1 y I 7 I z 5              ",
"                 A A X 8 q h c c Y l q z 2 o Z z 5              ",
"             V   A & v 8 L V N 3 N l M z I E 2 y 1 P            ",
"             B   y &0 00 q V i p i o M y Z 3 Q 9 5 q 2          ",
"             o   A &0001 e   N N i o P 90101 2 z l 6 1          ",
"           0 P   A v C00 1 V i E i D 5 y 2 Q I z 5 6 1          ",
"           0 l   8 v v 8 M h O o Y l 5 7 I02 Z z 103 D          ",
"           h l   2 u v04 M V N w 3 d x 9 Z r I y 5 M P          ",
"           0 f   I & &00 L   i N c o 5 y 8 y01 z 5 6 P          ",
"           h l n 7 7 C z 5 V050605 l 1 z 2 3 Z z 1 6 l          ",
"       0 0 0 l   G v v G q h c c c D M y03 P M 6 5 6 L l D l    ",
"     h 0 J 0 1 G l K K f L V p S06 l 1 y R I 2 9 1 6 1 5 P l 2  ",
"   0 0 B 7 h S v 9 z K T M  06 i i o x z070107 y08 6 P f D o f  ",
" h 0 009 3 0 1 n 7 C C 3 1 V w06 o o q T F 9 f P q 6 1 q P l 1 B",
" Z o S o S o l   A v v G q h N0a b l M z 9 y y z 503 D S S o o S",
" 2 R r 2 r 2 2 2 y z y0b 1 J o o o 5 1 P P F P P P 2 R 7 7 7 R 7",
"                                                                "};

