/* XPM */
static char *fleche4_xpm[] = {
/* width height num_colors chars_per_pixel */
"    18    35        8            1",
/* colors */
"` c #000000",
". c #8f918f",
"# c #e3e3e3",
"a c #575557",
"b c #ffffff",
"c c #bbbdbb",
"d c #6c6c6c",
"e c #312f31",
/* pixels */
"bbbbbbbbbbbbbbbbbb",
"bbbbbbbbe`abbbbbbb",
"bbbbbbba```.bbbbbb",
"bbbbbbba```.bbbbbb",
"bbbbbbba```.bbbbbb",
"bbbbbbba```.bbbbbb",
"bbbbbbba```.bbbbbb",
"bbbbbbba```.bbbbbb",
"bbbbbbba```.bbbbbb",
"bbbbbbba```.bbbbbb",
"bbbbbbba```.bbbbbb",
"bbbbbbba```.bbbbbb",
"bbbbbbba```.bbbbbb",
"b.dbbbba```.bbbbac",
"bc`cbbba```.bbb.`#",
"bbd`ebba```.b#``.b",
"bbd```.d```.a```.b",
"bbba```````````dbb",
"bbba```````````dbb",
"bbbbe`````````abbb",
"bbbbe`````````abbb",
"bbbb#````````ebbbb",
"bbbb#````````ebbbb",
"bbbbbc```````#bbbb",
"bbbbbc```````#bbbb",
"bbbbbb.`````cbbbbb",
"bbbbbb.`````cbbbbb",
"bbbbbbba```.bbbbbb",
"bbbbbbba```.bbbbbb",
"bbbbbbbbe`abbbbbbb",
"bbbbbbbbe`abbbbbbb",
"bbbbbbbb#ebbbbbbbb",
"bbbbbbbb#ebbbbbbbb",
"bbbbbbbbbbbbbbbbbb",
"bbbbbbbbbbbbbbbbbb"
};
