/* XPM */
static char *ftv2node_xpm[] = {
/* width height num_colors chars_per_pixel */
"    16    22       16            1",
/* colors */
"` c #808080",
". c #ffffff",
"# c #000000",
"a c #000000",
"b c #000000",
"c c #000000",
"d c #000000",
"e c #000000",
"f c #000000",
"g c #000000",
"h c #000000",
"i c #000000",
"j c #000000",
"k c #000000",
"l c #000000",
"m c None",
/* pixels */
"mmmmmmmmmmmmmmmm",
"mmmmmmm`mmmmmmmm",
"mmmmmmmmmmmmmmmm",
"mmmmmmm`mmmmmmmm",
"mmmmmmmmmmmmmmmm",
"mmmmmmm`mmmmmmmm",
"mmmmmmmmmmmmmmmm",
"mmmmmmm`mmmmmmmm",
"mmmmmmmmmmmmmmmm",
"mmmmmmm`m`m`m`m`",
"mmmmmmmmmmmmmmmm",
"mmmmmmm`mmmmmmmm",
"mmmmmmmmmmmmmmmm",
"mmmmmmm`mmmmmmmm",
"mmmmmmmmmmmmmmmm",
"mmmmmmm`mmmmmmmm",
"mmmmmmmmmmmmmmmm",
"mmmmmmm`mmmmmmmm",
"mmmmmmmmmmmmmmmm",
"mmmmmmm`mmmmmmmm",
"mmmmmmmmmmmmmmmm",
"mmmmmmm`mmmmmmmm"
};
